# xmcd
#
# Track frame offsets:
#	150
#	16191
#	30079
#	45678
#	63522
#	80723
#	99010
#	116775
#	135167
#	151990
#	174820
#	185675
#
# Disc length: 2595 seconds
#
# Revision: 0
# Processed by: cddbd v1.5.2PL0 Copyright (c) Steve Scherf et al.
# Submitted via: dBpowerAMP V4.0
#
DISCID=850a210c
DTITLE=Amy Macdonald - This Is The Life
DYEAR=1900
DGENRE=
TTITLE0=Mr Rock and Roll
TTITLE1=This Is The Life
TTITLE2=Poison Prince
TTITLE3=Youth Of Today
TTITLE4=Run
TTITLE5=Let's Start A Band
TTITLE6=Barrowland Ballroom
TTITLE7=L. A.
TTITLE8=A Wish For Something More
TTITLE9=Footballer's Wife
TTITLE10=The Road To Home
TTITLE11=Unknown
EXTD=
EXTT0=
EXTT1=
EXTT2=
EXTT3=
EXTT4=
EXTT5=
EXTT6=
EXTT7=
EXTT8=
EXTT9=
EXTT10=
EXTT11=
PLAYORDER=
